<?xml version="1.0" encoding="UTF-8"?>
<svg width="16px" height="16px" viewBox="0 0 16 16" version="1.1" xmlns="http://www.w3.org/2000/svg" xmlns:xlink="http://www.w3.org/1999/xlink">
    <title>ic-menu</title>
    <g id="Symbols" stroke="none" stroke-width="1" fill="none" fill-rule="evenodd">
        <g id="header-morong" transform="translate(-1057.000000, -16.000000)">
            <g id="Profile-picture" transform="translate(1035.000000, 0.000000)">
                <g id="ic-menu" transform="translate(22.000000, 16.000000)">
                    <g id="Group-47">
                        <g id="Oval-Copy-47" transform="translate(-0.000000, -0.000000)" fill="#FFFFFF">
                            <circle id="Oval-Copy-44" cx="7.74774775" cy="7.74774775" r="7.74774775"></circle>
                        </g>
                        <circle id="Oval-Copy-45" fill="#034e95" cx="7.63963964" cy="7.63963964" r="6.30630631"></circle>
                    </g>
                    <path d="M10.5729026,5.6796978 C10.6937195,5.6796978 10.7916521,5.58176522 10.7916521,5.46094832 L10.7916521,4.91407463 C10.7916521,4.79325773 10.6937195,4.69532515 10.5729026,4.69532515 L4.88541615,4.69532515 C4.76459925,4.69532515 4.66666667,4.79325773 4.66666667,4.91407463 L4.66666667,5.46094832 C4.66666667,5.58176522 4.76459925,5.6796978 4.88541615,5.6796978 L10.5729026,5.6796978 Z M10.5729026,7.86719259 C10.6937195,7.86719259 10.7916521,7.76926 10.7916521,7.64844311 L10.7916521,7.10156941 C10.7916521,6.98075251 10.6937195,6.88281993 10.5729026,6.88281993 L4.88541615,6.88281993 C4.76459925,6.88281993 4.66666667,6.98075251 4.66666667,7.10156941 L4.66666667,7.64844311 C4.66666667,7.76926 4.76459925,7.86719259 4.88541615,7.86719259 L10.5729026,7.86719259 Z M10.5729026,10.0546874 C10.6937195,10.0546874 10.7916521,9.95675479 10.7916521,9.83593789 L10.7916521,9.2890642 C10.7916521,9.1682473 10.6937195,9.07031472 10.5729026,9.07031472 L4.88541615,9.07031472 C4.76459925,9.07031472 4.66666667,9.1682473 4.66666667,9.2890642 L4.66666667,9.83593789 C4.66666667,9.95675479 4.76459925,10.0546874 4.88541615,10.0546874 L10.5729026,10.0546874 Z" id="" fill="#FFFFFF" fill-rule="nonzero"></path>
                </g>
            </g>
        </g>
    </g>
</svg>